<svg width="104" height="104" viewBox="0 0 104 104" fill="none" xmlns="http://www.w3.org/2000/svg">
<rect width="104" height="104" rx="52" fill="#0F0F0F"/>
<path d="M77.7134 66.68C75.1001 66.68 72.7668 66.0933 70.7134 64.92C68.6868 63.7467 67.0868 62.0667 65.9134 59.88C64.7668 57.6667 64.1934 55 64.1934 51.88C64.1934 48.8667 64.7401 46.2533 65.8334 44.04C66.9534 41.8 68.5401 40.0667 70.5934 38.84C72.6468 37.6133 75.0601 37 77.8334 37C81.6468 37 84.6068 37.9333 86.7134 39.8C88.8468 41.6667 90.2201 44.3467 90.8334 47.84L83.5934 48.12C83.3001 46.4133 82.6601 45.08 81.6734 44.12C80.6868 43.16 79.4068 42.68 77.8334 42.68C76.4468 42.68 75.2601 43.0667 74.2734 43.84C73.3134 44.6133 72.5801 45.6933 72.0734 47.08C71.5934 48.4667 71.3534 50.0667 71.3534 51.88C71.3534 53.7467 71.6068 55.36 72.1134 56.72C72.6468 58.08 73.3934 59.1333 74.3534 59.88C75.3134 60.6267 76.4601 61 77.7934 61C79.5268 61 80.8601 60.4933 81.7934 59.48C82.7534 58.44 83.3668 57.0133 83.6334 55.2L90.9134 55.48C90.5134 57.8533 89.7534 59.88 88.6334 61.56C87.5134 63.2133 86.0468 64.48 84.2334 65.36C82.4201 66.24 80.2468 66.68 77.7134 66.68Z" fill="white"/>
<path d="M49.9087 66.68C47.2954 66.68 44.9621 66.0933 42.9087 64.92C40.8821 63.7467 39.2821 62.0667 38.1087 59.88C36.9621 57.6667 36.3887 55 36.3887 51.88C36.3887 48.8667 36.9354 46.2533 38.0287 44.04C39.1487 41.8 40.7354 40.0667 42.7887 38.84C44.8421 37.6133 47.2554 37 50.0288 37C53.8421 37 56.8021 37.9333 58.9087 39.8C61.0421 41.6667 62.4154 44.3467 63.0287 47.84L55.7887 48.12C55.4954 46.4133 54.8554 45.08 53.8687 44.12C52.8821 43.16 51.6021 42.68 50.0288 42.68C48.6421 42.68 47.4554 43.0667 46.4688 43.84C45.5087 44.6133 44.7754 45.6933 44.2687 47.08C43.7887 48.4667 43.5487 50.0667 43.5487 51.88C43.5487 53.7467 43.8021 55.36 44.3088 56.72C44.8421 58.08 45.5887 59.1333 46.5487 59.88C47.5087 60.6267 48.6554 61 49.9888 61C51.7221 61 53.0554 60.4933 53.9888 59.48C54.9488 58.44 55.5621 57.0133 55.8288 55.2L63.1087 55.48C62.7087 57.8533 61.9488 59.88 60.8288 61.56C59.7088 63.2133 58.2421 64.48 56.4287 65.36C54.6154 66.24 52.4421 66.68 49.9087 66.68Z" fill="white"/>
<path d="M23.88 66.68C21.5067 66.68 19.52 66.2 17.92 65.24C16.32 64.28 15.1067 62.9733 14.28 61.32C13.4533 59.64 13.0267 57.7467 13 55.64L19.96 55.32C20.0133 57.2933 20.3733 58.7333 21.04 59.64C21.7333 60.5467 22.68 61 23.88 61C25.0533 61 25.9733 60.5867 26.64 59.76C27.3333 58.9067 27.68 57.56 27.68 55.72V37.64H34.64V55.72C34.64 57.96 34.1867 59.9067 33.28 61.56C32.3733 63.1867 31.1067 64.4533 29.48 65.36C27.88 66.24 26.0133 66.68 23.88 66.68Z" fill="white"/>
</svg>
