<svg width="452" height="45" viewBox="0 0 452 45" fill="none" xmlns="http://www.w3.org/2000/svg">
<path d="M22.032 25.248V1.68H16.368V25.248C16.368 29.088 15.6 31.824 11.328 31.824C7.008 31.824 6.336 29.088 6.336 25.248V23.664H0.912V25.248C0.912 31.152 3.216 36.72 11.472 36.72C19.728 36.72 22.032 31.152 22.032 25.248ZM43.0905 11.472V26.4C43.0905 30.048 40.5945 32.4 36.7065 32.4C33.2505 32.4 31.8585 30.288 31.8585 26.976V11.472H26.7705V28.416C26.7705 34.032 30.3705 36.672 34.9305 36.672C39.1545 36.672 41.6985 34.752 42.9945 32.832H43.0905V36H48.1305V11.472H43.0905ZM67.7633 17.904C67.7633 20.256 65.4593 20.736 61.6673 21.456C55.5233 22.656 51.5393 24.336 51.5393 29.712C51.5393 33.84 54.6113 36.72 59.6033 36.72C63.3953 36.72 66.1793 35.232 67.7153 33.072H67.8113C68.2913 35.472 69.5393 36.432 72.2273 36.432C73.1873 36.432 74.0033 36.336 75.1553 35.904V33.504C73.1873 33.696 72.8033 32.784 72.8033 31.056V19.392C72.8033 12.864 68.7713 10.8 63.3473 10.8C55.9553 10.8 52.9313 14.496 52.6913 19.2H57.5872C57.8273 16.032 59.3153 14.784 63.3473 14.784C66.7073 14.784 67.7633 16.128 67.7633 17.904ZM60.7073 32.736C57.9713 32.736 56.6273 31.488 56.6273 29.232C56.6273 26.736 58.4513 25.536 62.6273 24.624C64.9793 24.144 66.9473 23.568 67.7633 22.992V26.688C67.7633 30.672 64.8833 32.736 60.7073 32.736ZM91.3031 10.8C87.0791 10.8 84.5351 12.72 83.2391 14.64H83.1431V11.472H78.1031V36H83.1431V21.072C83.1431 17.424 85.6391 15.072 89.5271 15.072C92.9831 15.072 94.3751 17.184 94.3751 20.496V36H99.4631V19.056C99.4631 13.44 95.8631 10.8 91.3031 10.8ZM137.645 13.488H143.357C142.541 6.48 137.26 0.959999 128.573 0.959999C118.685 0.959999 112.445 8.496 112.445 18.816C112.445 29.184 118.685 36.72 128.573 36.72C137.309 36.72 142.589 31.2 143.357 23.472H137.645C137.26 27.648 134.812 31.824 128.429 31.824C121.037 31.824 118.109 25.632 118.109 18.816C118.109 12.048 121.037 5.856 128.429 5.856C134.765 5.856 137.021 10.032 137.645 13.488ZM158.72 10.896C155.504 10.896 153.488 13.008 152.192 16.08H152.096V11.472H147.056V36H152.096V23.472C152.096 18.24 155.984 14.976 160.832 15.792H160.928V11.04C160.208 10.944 159.584 10.896 158.72 10.896ZM180.294 11.472V26.4C180.294 30.048 177.798 32.4 173.91 32.4C170.454 32.4 169.062 30.288 169.062 26.976V11.472H163.974V28.416C163.974 34.032 167.574 36.672 172.134 36.672C176.358 36.672 178.902 34.752 180.198 32.832H180.294V36H185.334V11.472H180.294ZM189.222 32.256V36H209.718V31.872H195.702V31.776L209.19 14.832V11.472H190.086V15.6H202.422V15.696L189.222 32.256ZM246.863 13.488H252.575C251.759 6.48 246.479 0.959999 237.791 0.959999C227.903 0.959999 221.663 8.496 221.663 18.816C221.663 29.184 227.903 36.72 237.791 36.72C246.527 36.72 251.807 31.2 252.575 23.472H246.863C246.479 27.648 244.031 31.824 237.647 31.824C230.255 31.824 227.327 25.632 227.327 18.816C227.327 12.048 230.255 5.856 237.647 5.856C243.983 5.856 246.239 10.032 246.863 13.488ZM271.107 17.904C271.107 20.256 268.803 20.736 265.011 21.456C258.867 22.656 254.883 24.336 254.883 29.712C254.883 33.84 257.955 36.72 262.947 36.72C266.739 36.72 269.523 35.232 271.059 33.072H271.155C271.635 35.472 272.883 36.432 275.571 36.432C276.531 36.432 277.347 36.336 278.499 35.904V33.504C276.531 33.696 276.147 32.784 276.147 31.056V19.392C276.147 12.864 272.115 10.8 266.691 10.8C259.299 10.8 256.275 14.496 256.035 19.2H260.931C261.171 16.032 262.659 14.784 266.691 14.784C270.051 14.784 271.107 16.128 271.107 17.904ZM264.051 32.736C261.315 32.736 259.971 31.488 259.971 29.232C259.971 26.736 261.795 25.536 265.971 24.624C268.323 24.144 270.291 23.568 271.107 22.992V26.688C271.107 30.672 268.227 32.736 264.051 32.736ZM298.439 11.472V14.352H298.343C297.047 12.624 294.791 10.8 290.903 10.8C284.759 10.8 280.151 15.024 280.151 22.8C280.151 30.528 284.759 34.8 290.903 34.8C294.791 34.8 297.047 32.976 298.343 31.152H298.439V34.128C298.439 38.544 296.279 40.464 292.055 40.464C288.071 40.464 286.343 38.832 285.863 36.672H280.775C281.303 40.8 285.191 44.496 292.247 44.496C299.207 44.496 303.479 41.376 303.479 34.32V11.472H298.439ZM291.863 30.672C287.447 30.672 285.191 27.312 285.191 22.8C285.191 18.24 287.447 14.928 291.863 14.928C295.943 14.928 298.391 17.616 298.391 22.8C298.391 27.984 295.943 30.672 291.863 30.672ZM321.459 10.8C317.235 10.8 314.691 12.72 313.395 14.64H313.299V11.472H308.259V36H313.299V21.072C313.299 17.424 315.795 15.072 319.683 15.072C323.139 15.072 324.531 17.184 324.531 20.496V36H329.619V19.056C329.619 13.44 326.019 10.8 321.459 10.8ZM345.268 36.72C337.588 36.72 332.932 31.392 332.932 23.76C332.932 16.128 337.588 10.8 345.268 10.8C352.948 10.8 357.604 16.128 357.604 23.76C357.604 31.392 352.948 36.72 345.268 36.72ZM345.268 32.592C350.068 32.592 352.564 28.8 352.564 23.76C352.564 18.672 350.068 14.928 345.268 14.928C340.468 14.928 337.972 18.672 337.972 23.76C337.972 28.8 340.468 32.592 345.268 32.592ZM374.288 10.8C370.064 10.8 367.52 12.72 366.224 14.64H366.128V11.472H361.088V36H366.128V21.072C366.128 17.424 368.624 15.072 372.512 15.072C375.968 15.072 377.36 17.184 377.36 20.496V36H382.448V19.056C382.448 13.44 378.848 10.8 374.288 10.8ZM389.888 7.344C391.376 7.344 392.768 6.384 392.768 4.656C392.768 2.928 391.376 2.016 389.888 2.016C388.496 2.016 387.056 2.928 387.056 4.656C387.056 6.384 388.496 7.344 389.888 7.344ZM387.392 11.472V36H392.432V11.472H387.392ZM400.196 36.384C401.924 36.384 403.268 35.184 403.268 33.264C403.268 31.392 401.924 30.144 400.196 30.144C398.42 30.144 397.076 31.392 397.076 33.264C397.076 35.184 398.42 36.384 400.196 36.384ZM434.007 36.768C444.855 36.768 451.671 29.136 451.671 18.864C451.671 8.592 444.855 0.912 434.007 0.912C423.159 0.912 416.295 8.592 416.295 18.864C416.295 29.136 423.159 36.768 434.007 36.768ZM434.007 34.368C424.599 34.368 419.175 27.648 419.175 18.864C419.175 10.032 424.599 3.312 434.007 3.312C443.367 3.312 448.791 10.032 448.791 18.864C448.791 27.648 443.367 34.368 434.007 34.368ZM437.463 16.272H443.655C443.175 11.568 439.815 8.064 433.911 8.064C427.671 8.064 423.831 12.576 423.831 18.864C423.831 25.2 427.863 29.616 434.295 29.616C440.103 29.616 443.367 26.112 443.655 21.36H437.463C437.271 23.184 436.599 24.864 434.055 24.864C431.415 24.864 430.167 22.656 430.167 18.864C430.167 15.024 431.415 12.816 434.055 12.816C436.599 12.816 437.271 14.64 437.463 16.272Z" fill="#080808"/>
</svg>
